<?xml version="1.0" standalone="no"?><!DOCTYPE svg PUBLIC "-//W3C//DTD SVG 1.1//EN" "http://www.w3.org/Graphics/SVG/1.1/DTD/svg11.dtd"><svg t="1575939126347" class="icon" viewBox="0 0 1024 1024" version="1.1" xmlns="http://www.w3.org/2000/svg" p-id="1994" xmlns:xlink="http://www.w3.org/1999/xlink" width="200" height="200"><defs><style type="text/css"></style></defs><path d="M523.776 275.136h-23.04a25.792 25.792 0 0 0-25.664 25.792v285.184c0 14.272 11.52 25.92 25.728 25.92h22.976a25.92 25.92 0 0 0 25.792-25.92V300.928a25.792 25.792 0 0 0-25.792-25.792zM512 14.656a497.344 497.344 0 1 0 0 994.688A497.536 497.536 0 0 0 1009.472 512 497.472 497.472 0 0 0 512 14.656z m-4.48 932.672a432.64 432.64 0 0 1-432.768-432.704A432.576 432.576 0 0 1 507.52 81.92a432.576 432.576 0 0 1 432.832 432.64 432.64 432.64 0 0 1-432.832 432.768z m14.72-245.12h-21.504a25.856 25.856 0 0 0-25.728 26.048v27.008c0 14.336 11.52 25.984 25.728 25.984h21.504a25.92 25.92 0 0 0 25.856-25.984v-27.008a25.792 25.792 0 0 0-25.856-26.048z" p-id="1995"></path></svg>